<svg xmlns="http://www.w3.org/2000/svg" width="32" height="32" id="gauge"><g color="#000" transform="translate(0 -1020.362)"><path style="isolation:auto;mix-blend-mode:normal" fill="none" stroke="#f05542" stroke-dashoffset="1.1" stroke-linejoin="round" stroke-width="4" d="M3.876 1043.362a14 14 0 0 1 0-14 14 14 0 0 1 12.124-7" overflow="visible"></path><circle cx="16" cy="1036.362" r="10" fill="#f05542" overflow="visible" style="isolation:auto;mix-blend-mode:normal"></circle><path style="isolation:auto;mix-blend-mode:normal" fill="#2b4255" d="M26 1036.362a10 10 0 0 1-7.412 9.66 10 10 0 0 1-11.248-4.66l8.66-5z" overflow="visible"></path><path style="isolation:auto;mix-blend-mode:normal" fill="#25b39e" d="M16 1026.362a10 10 0 0 1 9.46 6.758 10 10 0 0 1-3.326 11.14L16 1036.362Z" overflow="visible"></path><path style="isolation:auto;mix-blend-mode:normal" fill="#f8b84e" d="M16 1026.362a10 10 0 0 1 9.66 7.412l-9.66 2.588Z" overflow="visible"></path><path style="isolation:auto;mix-blend-mode:normal" fill="none" stroke="#2b4255" stroke-dashoffset="1.1" stroke-linejoin="round" stroke-width="4" d="M24.547 1047.45a14 14 0 0 1-11.263 2.646 14 14 0 0 1-9.408-6.734" overflow="visible"></path><path style="isolation:auto;mix-blend-mode:normal" fill="none" stroke="#f8b84e" stroke-dashoffset="1.1" stroke-linejoin="round" stroke-width="4" d="M16 1022.362a14 14 0 0 1 13.523 10.377" overflow="visible"></path><path style="isolation:auto;mix-blend-mode:normal" fill="none" stroke="#25b39e" stroke-dashoffset="1.1" stroke-linejoin="round" stroke-width="4" d="M29.523 1032.739a14 14 0 0 1-5.015 14.741" overflow="visible"></path></g></svg>